<?xml version="1.0" encoding="UTF-8" standalone="no"?>
<svg
   xmlns:svg="http://www.w3.org/2000/svg"
   xmlns="http://www.w3.org/2000/svg"
   version="1.1"
   width="641.34875"
   height="246.54878"
   id="svg4853">
  <defs
     id="defs4855" />
  <g
     transform="translate(-96.468489,-260.51637)"
     id="layer1">
    <path
       d="m 113.49974,261.51637 c -8.8761,0 -16.031251,7.24521 -16.031251,16.1875 l 0,212.1875 c 0,8.92243 7.155151,16.15625 16.031251,16.15625 l 398.5,0 c 29.27378,0.37445 61.54876,-5.24488 93.78125,-17.46875 91.69981,-34.78292 148.24791,-109.87335 126.3125,-167.75 -14.425,-38.00308 -59.11972,-59.13238 -114.0625,-59.3125 l -3.84375,0 -500.6875,0 z"
       id="path346"
       style="fill:#ffffff;fill-opacity:1;fill-rule:nonzero;stroke:none" />
    <path
       d="m 116.49974,264.98511 c -8.59148,0 -15.5625,7.0346 -15.5625,15.71875 l 0,206.15626 c 0,8.67753 6.97102,15.71875 15.5625,15.71875 l 361.1875,0 c -37.7019,-7.43315 -66.62713,-26.62927 -77.6875,-55.8125 -21.95527,-57.87665 34.58144,-133.0182 126.28125,-167.78126 17.18296,-6.51973 34.40353,-11.14721 51.15625,-14 l -460.9375,0 z m 500.3125,0.0312 c -28.12992,0.1454 -58.94291,5.78924 -89.5,17.375 -88.84702,33.6974 -144.91652,106.94836 -123.65625,163.03126 21.26027,56.08952 111.84048,73.80439 200.6875,40.09375 88.86687,-33.6974 145.34263,-108.11122 124.0625,-164.18751 -13.94771,-36.81743 -57.89117,-56.59008 -111.59375,-56.3125 z"
       id="path362"
       style="fill:#0060a9;fill-opacity:1;fill-rule:nonzero;stroke:none" />
    <path
       d="m 691.84349,298.79761 c -16.92207,-0.10808 -154.12432,2.7136 -213.0625,120.06251 0,0 -31.18529,-31.64426 -57.90625,-27.375 0,0 51.5549,32.89237 59.875,80.5625 0,0 34.258,-143.28758 212.8125,-173.21876 0,0 -0.59061,-0.024 -1.71875,-0.0312 z m -31.28125,21.375 c -0.88773,0.0542 -1.7813,0.26114 -2.65625,0.59375 -4.67964,1.76066 -7.03051,6.98323 -5.25,11.65625 1.78713,4.67302 6.96999,7.00404 11.65625,5.25 4.65979,-1.78051 7.03529,-6.98985 5.28125,-11.65625 -1.45205,-3.79145 -5.1844,-6.07859 -9.03125,-5.84375 z m -28.9375,12.59375 c -20.65132,17.73234 -13.90625,33.78126 -13.90625,33.78126 14.21764,33.84963 59.71875,3.46875 59.71875,3.46875 -31.19541,58.82979 -164.5,80.09375 -164.5,80.09375 172.78273,-1.31056 187.1875,-104.21876 187.1875,-104.21876 -32.49274,26.48268 -53.40625,24.15626 -53.40625,24.15626 -33.36645,-2.97856 -15.09375,-37.28126 -15.09375,-37.28126 z"
       id="path366"
       style="fill:#ffffff;fill-opacity:1;fill-rule:nonzero;stroke:none" />
    <path
       d="m 709.46849,434.54762 0,2.09375 3.9375,0 0,11.65625 2.5,0 0,-11.65625 3.96875,0 0,-2.09375 -10.40625,0 z m 12.53125,0 -0.9375,13.75 2.34375,0 0.3125,-5.53125 c 0.1059,-1.8798 0.17719,-4.05477 0.25,-5.875 l 0.0312,0 c 0.36405,1.7408 0.84548,3.62096 1.375,5.375 l 1.84375,5.875 1.9375,0 2,-5.96875 c 0.60895,-1.73418 1.19954,-3.58678 1.65625,-5.28125 l 0.0312,0 c -0.0132,1.8798 0.10807,4.0386 0.1875,5.8125 l 0.25,5.59375 2.4375,0 -0.78125,-13.75 -3.25,0 -1.90625,5.5 c -0.5229,1.61504 -1.01095,3.32984 -1.375,4.8125 l -0.0625,0 c -0.35081,-1.52237 -0.76681,-3.16621 -1.25,-4.78125 l -1.8125,-5.53125 -3.28125,0 z"
       id="path382"
       style="fill:#0060a9;fill-opacity:1;fill-rule:nonzero;stroke:none" />
    <path
       d="m 294.23156,385.93232 5.25543,0 0,-28.83904 -5.25543,0 0,28.83904 z m -5.91078,-12.79455 -10.8618,0 0,8.47234 12.15251,0 0,4.32221 -17.41463,0 0,-28.83904 16.7792,0 0,4.32221 -11.51708,0 0,7.44639 10.8618,0 m -35.25948,1.37014 3.13079,0 c 3.55441,0 5.7784,-1.8798 5.7784,-4.75245 0,-3.16389 -2.22399,-4.62008 -5.65926,-4.62008 -1.66137,0 -2.73365,0.13239 -3.24993,0.25814 l 0,9.11439 z m -5.20917,-12.74823 c 1.95923,-0.34419 4.91793,-0.5957 7.94944,-0.5957 4.15012,0 6.96982,0.68175 8.90257,2.30341 1.58856,1.33043 2.47551,3.33598 2.47551,5.77841 0,3.71988 -2.51522,6.24835 -5.20916,7.22796 l 0,0.13237 c 2.05189,0.76782 3.28965,2.77999 4.01112,5.55998 0.9068,3.59412 1.67461,6.9301 2.27032,8.0421 l -5.43421,0 c -0.43023,-0.85385 -1.11199,-3.21023 -1.91289,-6.79773 -0.82076,-3.76622 -2.18428,-4.97087 -5.18931,-5.05031 l -2.65422,0 0,11.84804 -5.20917,0 m -5.90416,-12.79455 -10.8618,0 0,8.47234 12.15251,0 0,4.32221 -17.41463,0 0,-28.83904 16.7792,0 0,4.32221 -11.51708,0 0,7.44639 10.8618,0 m -39.62141,-11.7686 0,11.55018 12.19884,0 0,-11.55018 5.26212,0 0,28.83904 -5.26212,0 0,-12.7085 -12.19884,0 0,12.7085 -5.26212,0 0,-28.83904 m -4.48769,27.98519 c -1.24437,0.64205 -3.98465,1.3238 -7.45301,1.3238 -9.15409,0 -14.71407,-5.7784 -14.71407,-14.54198 0,-9.49827 6.58592,-15.23035 15.40245,-15.23035 3.46836,0 5.94387,0.72147 7.01615,1.27747 l -1.15832,4.19646 c -1.36352,-0.60233 -3.24994,-1.11199 -5.6394,-1.11199 -5.86445,0 -10.10062,3.67355 -10.10062,10.61028 0,6.32777 3.72651,10.39185 10.05428,10.39185 2.14456,0 4.36855,-0.42362 5.73207,-1.06567 m -42.14326,-0.72808 c 1.72756,0.97961 4.27588,1.84008 6.97644,1.84008 3.38894,0 5.26212,-1.58195 5.26212,-3.93831 0,-2.17766 -1.45619,-3.46836 -5.12974,-4.79216 -4.74583,-1.70771 -7.79058,-4.23618 -7.79058,-8.3863 0,-4.70612 3.9317,-8.30024 10.18666,-8.30024 3.12418,0 5.43421,0.68837 6.93673,1.45618 l -1.29733,4.23617 c -1.02594,-0.556 -3.02489,-1.37014 -5.72544,-1.37014 -3.33599,0 -4.78555,1.79375 -4.78555,3.46175 0,2.2306 1.66137,3.25655 5.51364,4.75245 4.99735,1.88642 7.43977,4.40827 7.43977,8.55839 0,4.62006 -3.50808,8.68414 -10.94785,8.68414 -3.04475,0 -6.20863,-0.90019 -7.78396,-1.84009 m -10.02121,1.37014 5.26221,0 0,-28.83904 -5.26221,0 0,28.83904 z m -21.76993,-28.83904 16.6402,0 0,4.32221 -11.3847,0 0,7.96268 10.61689,0 0,4.3156 -10.61689,0 0,12.23855 -5.2555,0 m 260.41848,-49.74189 -10.8618,0 0,8.47233 12.15251,0 0,4.3156 -17.41463,0 0,-28.83242 16.7792,0 0,4.32221 -11.51708,0 0,7.43978 10.8618,0 m -21.52503,15.74662 c -1.84009,0.68838 -5.43421,1.62828 -9.27985,1.62828 -4.87822,0 -8.55839,-1.24438 -11.29204,-3.85227 -2.56156,-2.4358 -4.06408,-6.24835 -4.01774,-10.61027 0,-9.11439 6.49987,-14.97884 16.04449,-14.97884 3.54117,0 6.32777,0.73471 7.65819,1.37014 l -1.15832,4.23617 C 351.8964,324.766 349.97689,324.21 346.93214,324.21 c -6.1623,0 -10.48451,3.63384 -10.48451,10.35214 0,6.54621 4.02436,10.43819 10.0278,10.43819 1.86656,0 3.28304,-0.25814 3.96479,-0.59572 l 0,-7.18825 -5.09002,0 0,-4.15011 10.18004,0 m -34.38577,15.91211 5.25556,0 0,-28.83905 -5.25556,0 0,28.83905 z m -16.94468,-24.42416 -8.21419,0 0,-4.40826 21.77655,0 0,4.40826 -8.29362,0 0,24.43078 -5.26874,0 m -22.45169,-28.84567 5.2555,0 0,24.43078 11.84803,0 0,4.41489 -17.10353,0 m -13.18508,-12.1525 -2.27032,-7.1022 c -0.55599,-1.75404 -1.03256,-3.71989 -1.44956,-5.38788 l -0.0861,0 c -0.43024,1.66799 -0.86047,3.67355 -1.37014,5.38788 l -2.22399,7.1022 7.40006,0 z m -8.26052,3.97802 -2.47552,8.17449 -5.44082,0 9.25338,-28.83905 6.70506,0 9.37252,28.83905 -5.64602,0 -2.60789,-8.17449 m -38.42337,-20.67119 0,11.5568 12.19884,0 0,-11.5568 5.26212,0 0,28.84567 -5.26212,0 0,-12.71513 -12.19884,0 0,12.71513 -5.26212,0 0,-28.84567 m -23.4975,0 0,11.5568 12.19885,0 0,-11.5568 5.26211,0 0,28.84567 -5.26211,0 0,-12.71513 -12.19885,0 0,12.71513 -5.26211,0 0,-28.84567 m -4.48107,27.98519 c -1.24438,0.64205 -3.98465,1.3238 -7.44639,1.3238 -9.16072,0 -14.71407,-5.7784 -14.71407,-14.54197 0,-9.49828 6.5793,-15.23035 15.39582,-15.23035 3.46837,0 5.94388,0.72147 7.01616,1.27747 l -1.15833,4.19645 c -1.36352,-0.60232 -3.24993,-1.11199 -5.6394,-1.11199 -5.86444,0 -10.10061,3.67355 -10.10061,10.61028 0,6.32777 3.7265,10.39185 10.05428,10.39185 2.14456,0 4.36855,-0.42361 5.73206,-1.06566 m -32.08235,-7.1419 -2.27694,-7.1022 c -0.56262,-1.75404 -1.02595,-3.71989 -1.44957,-5.38788 l -0.0861,0 c -0.43023,1.66799 -0.86047,3.67355 -1.37013,5.38788 l -2.22399,7.1022 7.40667,0 z m -8.27377,3.97802 -2.47551,8.17449 -5.42759,0 9.24014,-28.83905 6.71168,0 9.3659,28.83905 -5.6394,0 -2.61451,-8.17449 m -43.84436,8.16786 0,-28.83903 5.98359,0 7.44639,12.36431 c 1.92613,3.21022 3.60074,6.5462 4.92454,9.67037 l 0.0861,0 c -0.34419,-3.84563 -0.46995,-7.57215 -0.46995,-11.97378 l 0,-10.0609 4.8716,0 0,28.83903 -5.42759,0 -7.53244,-12.7085 c -1.84009,-3.12417 -3.76622,-6.67197 -5.18269,-9.92852 l -0.12576,0.0464 c 0.21181,3.71987 0.26476,7.53244 0.26476,12.27826 l 0,10.31243 m 253.48175,-49.74852 -10.8618,0 0,8.47234 12.15251,0 0,4.3156 -17.41462,0 0,-28.83242 16.77257,0 0,4.3156 -11.51046,0 0,7.44638 10.8618,0 m -33.06858,-7.35372 -8.2142,0 0,-4.40826 21.78317,0 0,4.40826 -8.30024,0 0,24.43077 -5.26873,0 m -24.86102,-15.70691 3.1308,0 c 3.55441,0 5.7784,-1.88642 5.7784,-4.75245 0,-3.16389 -2.22399,-4.62007 -5.65926,-4.62007 -1.66137,0 -2.73365,0.13238 -3.24994,0.25813 l 0,9.11439 z m -5.20916,-12.74822 c 1.96585,-0.34419 4.91793,-0.60233 7.94943,-0.60233 4.15013,0 6.96983,0.68838 8.90258,2.31004 1.58856,1.33042 2.47551,3.3426 2.47551,5.7784 0,3.71989 -2.51523,6.24835 -5.20916,7.23457 l 0,0.12577 c 2.05189,0.76781 3.29626,2.78661 4.01774,5.55997 0.90018,3.59413 1.66799,6.9301 2.2637,8.0421 l -5.43421,0 c -0.42362,-0.85385 -1.112,-3.21022 -1.9129,-6.79772 -0.82075,-3.76623 -2.18427,-4.96427 -5.1893,-5.05032 l -2.65423,0 0,11.84804 -5.20916,0 m -5.92402,-12.78794 -10.8618,0 0,8.47234 12.15251,0 0,4.3156 -17.41462,0 0,-28.83242 16.7792,0 0,4.3156 -11.51709,0 0,7.44638 10.8618,0 m -27.40271,17.07044 5.25556,0 0,-28.83904 -5.25556,0 0,28.83904 z m -26.15172,-2.91236 14.7604,-21.43236 0,-0.13239 -13.42998,0 0,-4.36193 20.28065,0 0,3.07784 -14.54859,21.22056 0,0.17209 14.7604,0 0,4.36855 -21.82288,0 m -9.36591,0 5.26212,0 0,-28.83904 -5.26212,0 0,28.83904 z m -21.77655,-28.83242 16.6402,0 0,4.32221 -11.38471,0 0,7.95606 10.6169,0 0,4.32221 -10.6169,0 0,12.23855 -5.25549,0 m -11.29204,-0.006 5.25543,0 0,-28.83903 -5.25543,0 0,28.83903 z m -16.93806,-24.4241 -8.22081,0 0,-4.40827 21.78317,0 0,4.40827 -8.30024,0 0,24.43077 -5.26212,0 m -24.86763,-15.70691 3.12417,0 c 3.55442,0 5.7784,-1.88643 5.7784,-4.75245 0,-3.16389 -2.22398,-4.62008 -5.65263,-4.62008 -1.67461,0 -2.74028,0.13239 -3.24994,0.25814 l 0,9.11439 z m -5.21578,-12.74823 c 1.96585,-0.34418 4.92454,-0.60232 7.94943,-0.60232 4.15674,0 6.97644,0.68837 8.90258,2.31004 1.58856,1.33042 2.48213,3.3426 2.48213,5.7784 0,3.71988 -2.51523,6.24835 -5.21579,7.23457 l 0,0.12576 c 2.0519,0.76782 3.29627,2.78662 4.01774,5.55998 0.90019,3.59412 1.668,6.9301 2.27033,8.0421 l -5.43421,0 c -0.42362,-0.85385 -1.112,-3.21023 -1.92614,-6.79773 -0.81414,-3.76622 -2.17765,-4.96426 -5.18268,-5.05031 l -2.64761,0 0,11.84804 -5.21578,0 m -5.90416,-12.78794 -10.86842,0 0,8.47234 12.15251,0 0,4.3156 -17.40801,0 0,-28.83243 16.77258,0 0,4.3156 -11.51708,0 0,7.44639 10.86842,0 m -42.27566,14.15808 14.7604,-21.43237 0,-0.13238 -13.42336,0 0,-4.36193 20.27404,0 0,3.07784 -14.54859,21.22056 0,0.17209 14.7604,0 0,4.36855 -21.82289,0 m 121.51187,128.7725 c -1.84009,0.92004 -5.97035,1.97247 -11.35823,1.97247 -15.30316,0 -23.1864,-9.59095 -23.1864,-22.20017 0,-15.11121 10.76913,-23.51736 24.16601,-23.51736 5.19593,0 9.13424,1.05243 10.90152,1.97248 l -2.03204,7.94942 c -2.03865,-0.86046 -4.85835,-1.64812 -8.39953,-1.64812 -7.95605,0 -14.13159,4.79877 -14.13159,14.65448 0,8.86287 5.26212,14.44269 14.19778,14.44269 3.01165,0 6.36749,-0.65527 8.33334,-1.44294 m -63.50943,-1.25098 c 2.69394,1.37675 6.8242,2.76012 11.09346,2.76012 4.60684,0 7.03601,-1.90627 7.03601,-4.79877 0,-2.76014 -2.10484,-4.33547 -7.43315,-6.23512 -7.3471,-2.56156 -12.14589,-6.63887 -12.14589,-13.07255 0,-7.5523 6.31454,-13.33731 16.75273,-13.33731 4.99073,0 8.6709,1.05904 11.29203,2.23723 l -2.23722,8.08181 c -1.76728,-0.85385 -4.92455,-2.10485 -9.25338,-2.10485 -4.34208,0 -6.43369,1.96585 -6.43369,4.26926 0,2.82633 2.48875,4.0707 8.20096,6.24174 7.82368,2.8925 11.49723,6.95657 11.49723,13.19831 0,7.42653 -5.70559,13.79403 -17.86472,13.79403 -5.05031,0 -10.04766,-1.37677 -12.54303,-2.76014 m -13.79402,-14.90603 c -0.19857,-5.32168 -0.39714,-11.75536 -0.39714,-18.19566 l -0.19196,0 c -1.37675,5.64601 -3.21684,11.95394 -4.92454,17.14324 l -5.38126,17.27562 -7.82367,0 -4.7326,-17.07705 c -1.43632,-5.2555 -2.95208,-11.5568 -3.99788,-17.34181 l -0.139,0 c -0.25814,5.97696 -0.45671,12.80779 -0.78104,18.32804 l -0.79429,16.8123 -9.25338,0 2.8197,-44.26796 13.3307,0 4.33545,14.77363 c 1.37675,5.05693 2.76013,10.64338 3.75298,15.83268 l 0.18533,0 c 1.251,-5.12311 2.76013,-10.9677 4.20308,-15.89225 l 4.72597,-14.71406 13.07917,0 2.42918,44.26796 -9.78952,0 m 242.58023,29.47447 c 0.0265,-1.78713 -0.76119,-4.71936 -4.01113,-4.71936 -3.01826,0 -4.28911,2.73366 -4.48769,4.71936 l 8.49882,0 z m -8.49882,3.40879 c 0.12577,3.49484 2.85942,5.00398 5.95712,5.00398 2.25708,0 3.88536,-0.31772 5.35477,-0.87372 l 0.71486,3.3757 c -1.67461,0.67514 -3.96478,1.23114 -6.7514,1.23114 -6.2682,0 -9.95498,-3.89197 -9.95498,-9.80276 0,-5.3614 3.24992,-10.39846 9.44532,-10.39846 6.3013,0 8.33334,5.15621 8.33334,9.40561 0,0.91342 -0.0794,1.62166 -0.16548,2.05851 m -26.49591,-2.97855 -0.11912,-1.26424 c -0.43024,-1.90627 -1.97909,-3.45512 -4.20308,-3.45512 -3.1308,0 -4.88484,2.77999 -4.88484,6.38735 0,3.53456 1.75404,6.10935 4.84513,6.10935 1.99231,0 3.73311,-1.34366 4.20969,-3.4485 l 0.15223,-1.42971 0,-2.89913 z m 4.88484,-16.89834 0,22.72969 c 0,1.9857 0.0728,4.13026 0.15885,5.44083 l -4.36193,0 -0.19857,-3.05137 -0.0794,0 c -1.15171,2.13794 -3.50146,3.48823 -6.31453,3.48823 -4.60684,0 -8.25392,-3.9317 -8.25392,-9.88219 -0.0398,-6.46677 4.01113,-10.31905 8.65105,-10.31905 2.66084,0 4.56712,1.112 5.43422,2.54171 l 0.0794,0 0,-10.94785 m -28.61399,29.75908 9.69023,-28.76624 3.40217,0 -9.677,28.76624 m -11.23246,-13.17184 -0.15224,-1.31056 c -0.5229,-1.78714 -1.90627,-3.1308 -3.9714,-3.1308 -2.74028,0 -4.75908,2.37622 -4.75908,6.30792 0,3.29627 1.65476,5.95049 4.71936,5.95049 1.82685,0 3.40217,-1.19141 3.96479,-2.93884 l 0.19857,-1.74742 0,-3.13079 z m 4.88483,8.77019 c 0,4.04422 -0.84061,6.94335 -2.85941,8.7702 -2.02542,1.78051 -4.8054,2.33651 -7.46625,2.33651 -2.46227,0 -5.07678,-0.51629 -6.73815,-1.54224 l 1.06566,-3.6934 c 1.23775,0.71485 3.29627,1.46942 5.63278,1.46942 3.18374,0 5.55997,-1.66799 5.55997,-5.83135 l 0,-1.66799 -0.0794,0 c -1.11199,1.7077 -3.09769,2.85941 -5.63278,2.85941 -4.8054,0 -8.21419,-3.97141 -8.21419,-9.44534 0,-6.35425 4.12364,-10.1999 8.76357,-10.1999 2.93223,0 4.68626,1.42972 5.59969,3.01828 l 0.0794,0 0.19857,-2.58141 4.24279,0 c -0.0794,1.31056 -0.15224,2.89912 -0.15224,5.55335 m -31.30793,0.67513 c 0,-2.62112 -0.0463,-4.48107 -0.16548,-6.22848 l 4.24279,0 0.16548,3.68678 0.16547,0 c 0.94652,-2.73365 3.21022,-4.12365 5.26874,-4.12365 l 1.15832,0.11913 0,4.60021 -1.4297,-0.15886 c -2.34975,0 -3.92508,1.50914 -4.36855,3.69341 l -0.16548,1.50914 0,9.99471 -4.87159,0 m -18.56633,-9.63729 c 0,3.7265 1.82684,6.5462 4.8054,6.5462 2.77999,0 4.72598,-2.74026 4.72598,-6.62562 0,-3.01828 -1.3569,-6.4734 -4.68627,-6.4734 -3.4485,0 -4.84511,3.33599 -4.84511,6.55282 m 14.56845,-0.19857 c 0,7.1022 -5.00398,10.27934 -9.92191,10.27934 -5.47392,0 -9.68361,-3.77284 -9.68361,-9.96163 0,-6.34762 4.16336,-10.23961 10.00795,-10.23961 5.75192,0 9.59757,4.04422 9.59757,9.9219 m -25.36406,10.27271 c -1.75404,0 -2.97856,-1.35027 -2.97856,-3.13741 0,-1.82023 1.27085,-3.13079 3.01165,-3.13079 1.78713,0 3.01827,1.27085 3.01827,3.13079 0,1.78714 -1.19142,3.13741 -3.01827,3.13741 m -5.70559,-1.02594 c -1.02595,0.47658 -3.04475,1.03257 -5.48054,1.03257 -6.0233,0 -9.94838,-3.89198 -9.94838,-9.88219 0,-5.79164 3.96479,-10.31904 10.74266,-10.31904 1.78713,0 3.61398,0.39714 4.73259,0.91343 l -0.87371,3.6537 c -0.79428,-0.35744 -1.9526,-0.75458 -3.69341,-0.75458 -3.73312,0 -5.95049,2.74028 -5.91739,6.26821 0,3.96479 2.58803,6.22849 5.91739,6.22849 1.70771,0 2.89913,-0.35081 3.84565,-0.75457 m -30.30846,-0.278 c 1.11199,0.68176 3.21684,1.38998 4.95764,1.38998 2.15118,0 3.0977,-0.8737 3.0977,-2.14455 0,-1.30395 -0.79428,-1.98571 -3.17051,-2.81308 -3.77284,-1.31057 -5.3614,-3.3757 -5.31507,-5.63278 0,-3.41541 2.81308,-6.07626 7.29416,-6.07626 2.14456,0 4.0045,0.556 5.11649,1.15171 l -0.94652,3.44851 c -0.84061,-0.46995 -2.38946,-1.112 -4.09055,-1.112 -1.7408,0 -2.68732,0.84062 -2.68732,2.03204 0,1.22451 0.90019,1.82023 3.36246,2.69394 3.50146,1.27085 5.12312,3.05799 5.15622,5.91077 0,3.49484 -2.73366,6.07627 -7.85015,6.07627 -2.34314,0 -4.44798,-0.59572 -5.87107,-1.39 m -32.47288,-12.62245 c 0,-2.22399 -0.0331,-4.08394 -0.15224,-5.75193 l 4.19646,0 0.20519,2.8528 0.11252,0 c 0.95976,-1.50914 2.70056,-3.28965 5.96373,-3.28965 2.53508,0 4.52079,1.4297 5.35478,3.56765 l 0.0794,0 c 0.67514,-1.06566 1.4628,-1.86656 2.38285,-2.41595 1.06566,-0.75456 2.30341,-1.1517 3.87874,-1.1517 3.21684,0 6.46678,2.18428 6.46678,8.37305 l 0,11.3847 -4.75907,0 0,-10.66985 c 0,-3.21684 -1.112,-5.12311 -3.44851,-5.12311 -1.66799,0 -2.89913,1.19142 -3.41541,2.58141 l -0.23167,1.62828 0,11.58327 -4.77231,0 0,-11.18612 c 0,-2.70057 -1.07228,-4.60684 -3.32274,-4.60684 -1.82685,0 -3.05799,1.4297 -3.50146,2.77999 l -0.278,1.58856 0,11.42441 -4.75907,0 m -6.96982,0.43685 c -1.75404,0 -2.98517,-1.35027 -2.98517,-3.13741 0,-1.82023 1.27747,-3.13079 3.01827,-3.13079 1.78713,0 3.01165,1.27085 3.01165,3.13079 0,1.78714 -1.18481,3.13741 -3.01165,3.13741 m -27.46229,-19.75775 2.02542,8.77019 c 0.44347,2.06514 0.87371,4.16336 1.23775,6.26821 l 0.0728,0 c 0.39714,-2.10485 1.03919,-4.24941 1.58857,-6.22849 l 2.49536,-8.80991 3.96479,0 2.4358,8.57163 c 0.58247,2.2637 1.11199,4.36192 1.53561,6.46677 l 0.0861,0 c 0.31771,-2.10485 0.74795,-4.20307 1.27747,-6.46677 l 2.13794,-8.57163 4.79217,0 -6.06964,19.32753 -4.52078,0 -2.30342,-7.85678 c -0.5957,-2.02541 -1.02594,-3.85226 -1.46279,-6.1954 l -0.0794,0 c -0.39714,2.38285 -0.91342,4.2825 -1.46942,6.1954 l -2.46227,7.85678 -4.56712,0 -5.71221,-19.32753 m -25.35744,0 2.02542,8.77019 c 0.44347,2.06514 0.87371,4.16336 1.23775,6.26821 l 0.0662,0 c 0.39714,-2.10485 1.03257,-4.24941 1.59519,-6.22849 l 2.49536,-8.80991 3.96479,0 2.42256,8.57163 c 0.59571,2.2637 1.11861,4.36192 1.54885,6.46677 l 0.0861,0 c 0.31771,-2.10485 0.74795,-4.20307 1.26423,-6.46677 l 2.14456,-8.57163 4.79879,0 -6.06964,19.32753 -4.5274,0 -2.2968,-7.85678 c -0.60233,-2.02541 -1.02595,-3.85226 -1.4628,-6.1954 l -0.0861,0 c -0.39714,2.38285 -0.90681,4.2825 -1.46942,6.1954 l -2.45566,7.85678 -4.56712,0 -5.71221,-19.32753 m -25.35746,0 2.02542,8.77019 c 0.43024,2.06514 0.87371,4.16336 1.23776,6.26821 l 0.0728,0 c 0.39714,-2.10485 1.03918,-4.24941 1.58856,-6.22849 l 2.49537,-8.80991 3.96479,0 2.43579,8.57163 c 0.58248,2.2637 1.112,4.36192 1.53562,6.46677 l 0.0861,0 c 0.31109,-2.10485 0.74794,-4.20307 1.27746,-6.46677 l 2.13795,-8.57163 4.79216,0 -6.06963,19.32753 -4.52079,0 -2.30342,-7.85678 c -0.59571,-2.02541 -1.02594,-3.85226 -1.4628,-6.1954 l -0.0861,0 c -0.39052,2.38285 -0.9068,4.2825 -1.4628,6.1954 l -2.46227,7.85678 -4.56712,0 -5.71221,-19.32753"
       id="path574"
       style="fill:#ffffff;fill-opacity:1;fill-rule:nonzero;stroke:none" />
  </g>
</svg>
